# xmcd
#
# Track frame offsets: 
#        187
#        17750
#        36055
#        50975
#        72497
#        92762
#        94447
#        109575
#        121910
#        143202
#        158270
#        159722
#        174872
#        198420
#
# Disc length: 2698 seconds
#
# Revision: 3
# Processed by: cddbd v1.5.2PL0 Copyright (c) Steve Scherf et al.
# Submitted via: ExactAudioCopyFreeDBPlugin 1.0
#
DISCID=ba0a880e
DTITLE=Windows - Blue September
DYEAR=1990
DGENRE=Lite-Jazz
TTITLE0=Under My Thumb
TTITLE1=Counting Up the Years
TTITLE2=Edge of The World
TTITLE3=Blue September
TTITLE4=Stay In Touch
TTITLE5=Interlude
TTITLE6=Love Is In My Life
TTITLE7=Sand Box
TTITLE8=Someon'es Growing Up Here
TTITLE9=In the Lounge
TTITLE10=Interlude
TTITLE11=Ginger Snaps
TTITLE12=Elbow Room
TTITLE13=Unknown
EXTD=
EXTT0=
EXTT1=
EXTT2=
EXTT3=
EXTT4=
EXTT5=
EXTT6=
EXTT7=
EXTT8=
EXTT9=
EXTT10=
EXTT11=
EXTT12=
EXTT13=
PLAYORDER=
